<?xml version="1.0" encoding="iso-8859-1"?>
<!-- Generator: Adobe Illustrator 19.0.0, SVG Export Plug-In . SVG Version: 6.00 Build 0)  -->
<svg version="1.1" id="Capa_1" xmlns="http://www.w3.org/2000/svg" xmlns:xlink="http://www.w3.org/1999/xlink" x="0px" y="0px"
	 viewBox="0 0 389.172 389.172" style="enable-background:new 0 0 389.172 389.172;" xml:space="preserve">
<g>
	<g>
		<path d="M388.689,151.423c-4.448-40.866-38.761-71.945-79.866-72.339h-0.24c-2.886,0.007-5.771,0.168-8.64,0.48
			c-17.669-55.673-77.124-86.482-132.797-68.813c-33.291,10.566-59.219,36.886-69.283,70.333c-5.751-1.283-11.627-1.927-17.52-1.92
			c-44.799,0.429-80.768,37.094-80.339,81.894c0.394,41.105,31.473,75.418,72.339,79.866v134.48c0,4.418,3.582,8,8,8h228.48
			c4.418,0,8-3.582,8-8v-134.56C361.361,235.996,393.537,195.961,388.689,151.423z M300.743,367.084h-212.4v-32h212.4V367.084z
			 M322.252,224.126c-4.47,0.928-9.024,1.383-13.589,1.358l-0.08-0.24c-4.418,0-8,3.582-8,8v86.56H88.423v-79.04
			c37.36-4.16,59.84-36.4,60.8-37.92c2.452-3.676,1.459-8.643-2.217-11.094c-3.612-2.409-8.486-1.497-10.983,2.055
			c0,0-22,31.36-56,31.36c-35.964,0.295-65.357-28.619-65.653-64.583c-0.295-35.964,28.619-65.357,64.583-65.653
			c7.527-0.062,15.008,1.182,22.11,3.676c4.184,1.421,8.727-0.818,10.148-5.002c0.102-0.301,0.186-0.607,0.252-0.918
			c10.512-48.446,58.307-79.197,106.753-68.685c33.621,7.295,60.115,33.166,68.207,66.605c0.993,4.195,5.133,6.849,9.36,6
			c35.214-7.309,69.686,15.312,76.996,50.526C380.087,182.345,357.466,216.817,322.252,224.126z"/>
	</g>
</g>
<g>
</g>
<g>
</g>
<g>
</g>
<g>
</g>
<g>
</g>
<g>
</g>
<g>
</g>
<g>
</g>
<g>
</g>
<g>
</g>
<g>
</g>
<g>
</g>
<g>
</g>
<g>
</g>
<g>
</g>
</svg>
